<?xml version="1.0" standalone="no"?>
<!DOCTYPE svg PUBLIC "-//W3C//DTD SVG 20010904//EN"
 "http://www.w3.org/TR/2001/REC-SVG-20010904/DTD/svg10.dtd">
<svg version="1.0" xmlns="http://www.w3.org/2000/svg"
 width="450.000000pt" height="338.000000pt" viewBox="0 0 450.000000 338.000000"
 preserveAspectRatio="xMidYMid meet">
<metadata>
Created by potrace 1.10, written by Peter Selinger 2001-2011
</metadata>
<g transform="translate(0.000000,338.000000) scale(0.100000,-0.100000)"
fill="#000000" stroke="none">
<path d="M3008 2874 c-59 -44 -86 -111 -128 -319 -39 -192 -54 -243 -96 -330
-45 -90 -50 -94 -58 -48 -16 94 -94 183 -161 183 -34 0 -116 -39 -151 -71 -21
-20 -21 -19 -48 19 -14 21 -41 49 -59 63 -28 21 -41 24 -115 22 -74 -1 -89 -4
-132 -31 l-48 -30 -50 54 c-51 53 -52 54 -110 54 -47 0 -67 -5 -96 -25 -29
-19 -41 -23 -56 -15 -10 5 -29 10 -42 10 -25 0 -120 -55 -186 -108 -39 -31
-135 -74 -232 -105 -46 -14 -85 -50 -110 -103 -27 -58 -25 -108 6 -190 14 -38
33 -91 41 -119 115 -376 141 -428 328 -650 65 -77 127 -174 140 -219 7 -23 18
-111 24 -196 7 -85 14 -165 17 -176 5 -30 43 -38 69 -15 11 10 55 42 98 72
l79 54 31 -35 c18 -19 42 -48 53 -64 26 -37 36 -31 110 58 l57 69 26 -30 c14
-17 51 -61 81 -97 30 -36 59 -66 65 -66 5 0 34 34 63 75 30 41 58 75 62 75 9
0 110 -116 137 -156 19 -30 48 -31 68 -2 170 248 180 272 229 553 51 289 56
336 54 530 l-2 180 48 160 c50 167 65 223 116 440 17 72 45 170 62 220 25 75
30 100 26 155 -12 168 -103 234 -210 154z m145 -36 c16 -21 22 -48 25 -111 4
-73 1 -94 -26 -172 -17 -50 -49 -171 -71 -270 -23 -99 -63 -250 -90 -335 -57
-183 -79 -328 -62 -410 20 -92 17 -118 -46 -484 -42 -244 -69 -321 -158 -451
-38 -55 -70 -102 -72 -104 -2 -3 -11 6 -20 19 -10 13 -44 55 -76 93 -80 92
-81 92 -183 -49 l-21 -28 -33 37 c-18 21 -48 58 -67 82 -53 70 -67 73 -111 28
-21 -21 -50 -54 -64 -73 l-27 -34 -54 57 c-31 31 -60 57 -66 57 -11 0 -126
-77 -176 -118 l-30 -25 -7 49 c-4 27 -12 107 -18 177 -13 177 -35 220 -219
447 -120 147 -165 232 -222 413 -22 73 -56 178 -75 234 -70 208 -38 273 166
338 73 23 104 40 160 84 25 20 71 50 102 66 57 29 57 29 79 10 28 -25 49 -75
49 -116 0 -70 -56 -209 -85 -209 -5 0 -35 -13 -66 -30 -93 -48 -237 -59 -284
-20 -9 7 -19 10 -23 6 -11 -12 36 -45 81 -57 41 -11 144 -2 190 16 14 6 17 1
17 -32 0 -76 67 -177 135 -203 17 -7 84 -14 149 -17 100 -5 122 -9 135 -25 38
-46 72 -76 89 -80 10 -3 39 0 64 7 l47 12 -6 -42 c-7 -55 23 -123 69 -159 28
-21 46 -26 92 -26 68 0 123 21 136 52 5 13 41 104 80 203 39 98 83 198 98 220
15 23 42 64 60 90 24 36 32 60 32 92 0 32 11 65 44 126 56 103 76 166 116 358
45 215 63 267 108 307 48 42 104 42 135 0z m-1216 -475 c39 -42 43 -52 37 -78
-5 -16 -9 -131 -10 -255 -1 -186 -5 -232 -19 -264 l-16 -39 -96 7 c-52 4 -104
11 -116 15 -25 10 -47 79 -54 178 l-5 72 35 31 c64 56 93 206 62 320 -6 22 -2
28 27 42 18 9 51 17 72 17 34 1 45 -5 83 -46z m343 -13 c11 -6 35 -31 55 -57
42 -55 45 -93 15 -234 -11 -52 -20 -104 -20 -116 0 -13 -14 -67 -31 -120 -26
-81 -38 -104 -71 -134 -42 -39 -113 -65 -147 -54 -12 4 -33 24 -46 45 -13 21
-34 41 -45 45 -14 5 -19 12 -15 23 19 50 25 122 23 290 -2 103 1 201 5 218 6
22 24 43 60 68 47 33 56 36 125 36 40 0 82 -5 92 -10z m344 -48 c33 -30 64
-106 79 -193 16 -92 11 -115 -37 -169 -38 -42 -64 -96 -137 -279 -39 -97 -74
-186 -79 -198 -14 -34 -30 -28 -30 12 0 37 -20 86 -48 118 -24 27 -72 21 -115
-14 -35 -29 -37 -29 -37 -9 0 25 23 72 57 116 46 61 92 235 124 474 11 85 24
103 104 145 53 28 85 27 119 -3z m-994 -379 c0 -61 -1 -65 -15 -47 -15 19 -21
95 -8 107 17 18 23 2 23 -60z m7 -90 c-4 -3 -7 0 -7 7 0 7 3 10 7 7 3 -4 3
-10 0 -14z"/>
<path d="M3024 2746 c-25 -28 -33 -50 -49 -135 -14 -75 -16 -104 -7 -113 14
-14 28 16 41 94 11 60 55 158 71 158 16 0 50 -38 50 -55 0 -21 -46 -63 -73
-67 -28 -4 -34 -28 -8 -35 20 -5 23 -16 23 -103 0 -3 -3 -22 -6 -42 -5 -29 -4
-38 7 -38 24 0 39 54 36 129 -3 65 -2 71 24 95 36 33 37 87 2 121 -35 36 -73
32 -111 -9z"/>
<path d="M2927 2433 c-16 -15 -5 -33 19 -33 24 0 26 -3 20 -32 -15 -74 -28
-108 -41 -108 -18 0 -30 -19 -19 -30 5 -5 29 -10 54 -12 36 -2 45 1 48 15 2
10 -3 17 -12 17 -19 0 -19 7 -4 82 11 52 14 57 34 52 25 -6 40 9 21 23 -6 6
-33 15 -59 22 -55 13 -53 13 -61 4z"/>
<path d="M1674 2288 c-5 -7 -20 -33 -34 -58 -13 -25 -35 -63 -49 -85 l-25 -40
-7 57 c-7 60 -33 113 -50 102 -6 -3 -26 -40 -45 -83 -19 -42 -47 -88 -61 -104
-21 -21 -24 -30 -15 -39 18 -18 58 25 96 105 33 67 33 68 40 36 3 -17 6 -51 6
-74 0 -50 20 -65 48 -37 21 21 82 120 108 175 12 25 15 40 7 48 -7 7 -13 6
-19 -3z"/>
<path d="M2898 2160 c-64 -34 -93 -124 -64 -194 14 -34 18 -37 51 -34 43 4 51
22 13 26 -33 4 -43 32 -35 95 6 44 42 83 82 89 23 3 27 32 5 35 -8 1 -32 -7
-52 -17z"/>
<path d="M2793 1886 c-47 -39 -81 -122 -93 -222 -5 -49 -10 -92 -10 -96 0 -20
43 -48 73 -48 100 0 159 115 142 277 -5 50 -13 72 -30 89 -30 30 -46 30 -82 0z
m71 -38 c10 -38 7 -185 -5 -215 -18 -49 -48 -73 -92 -73 l-40 0 6 85 c4 53 14
103 27 132 37 84 90 120 104 71z"/>
<path d="M1810 2296 c0 -8 5 -18 10 -21 6 -4 10 -56 10 -124 0 -117 0 -118
-26 -129 -43 -20 -18 -35 48 -28 33 3 64 8 69 12 17 10 -2 24 -32 24 l-30 0 3
123 c3 118 4 122 26 125 12 2 22 10 22 18 0 10 -13 14 -50 14 -37 0 -50 -4
-50 -14z"/>
<path d="M2120 2275 c0 -8 -18 -59 -40 -113 -47 -117 -60 -182 -37 -182 17 0
22 12 33 73 3 20 10 37 14 37 10 0 95 -91 109 -118 10 -19 51 -32 51 -16 0 10
-66 97 -94 123 -32 30 -32 37 -3 45 31 7 127 86 127 103 0 21 -21 15 -64 -21
-23 -18 -56 -41 -75 -51 -33 -16 -34 -16 -26 1 28 65 38 102 32 117 -8 21 -27
22 -27 2z"/>
<path d="M2502 2155 c-30 -25 -91 -132 -111 -197 -29 -88 -10 -193 36 -204 74
-19 173 172 173 332 0 34 -3 69 -6 78 -9 24 -58 19 -92 -9z m58 -90 c0 -118
-68 -275 -120 -275 -23 0 -35 50 -27 111 6 47 69 184 99 217 38 40 48 29 48
-53z"/>
</g>
</svg>
