<?xml version="1.0" encoding="UTF-8" standalone="no"?>
<svg
   version="1.0"
   width="300.000000pt"
   height="225.000000pt"
   viewBox="0 0 300.000000 225.000000"
   preserveAspectRatio="xMidYMid meet"
   id="svg9"
   sodipodi:docname="nikorico-logo2.svg"
   inkscape:version="1.3.2 (091e20ef0f, 2023-11-25)"
   xmlns:inkscape="http://www.inkscape.org/namespaces/inkscape"
   xmlns:sodipodi="http://sodipodi.sourceforge.net/DTD/sodipodi-0.dtd"
   xmlns="http://www.w3.org/2000/svg"
   xmlns:svg="http://www.w3.org/2000/svg">
  <defs
     id="defs9" />
  <sodipodi:namedview
     id="namedview9"
     pagecolor="#ffffff"
     bordercolor="#000000"
     borderopacity="0.25"
     inkscape:showpageshadow="2"
     inkscape:pageopacity="0.0"
     inkscape:pagecheckerboard="0"
     inkscape:deskcolor="#d1d1d1"
     inkscape:document-units="pt"
     inkscape:zoom="2.7166667"
     inkscape:cx="200.06135"
     inkscape:cy="120.55215"
     inkscape:window-width="1920"
     inkscape:window-height="1012"
     inkscape:window-x="0"
     inkscape:window-y="0"
     inkscape:window-maximized="1"
     inkscape:current-layer="svg9" />
  <metadata
     id="metadata1">
Created by potrace 1.10, written by Peter Selinger 2001-2011
</metadata>
  <g
     transform="translate(0.000000,225.000000) scale(0.100000,-0.100000)"
     fill="#000000"
     stroke="none"
     id="g9"
     style="stroke:#8d8d8d;stroke-opacity:1;fill:#000000;fill-opacity:1">
    <path
       d="M2003 1912 c-40 -34 -56 -75 -88 -231 -15 -68 -40 -155 -57 -193 l-31 -69 -18 53 c-20 59 -58 98 -95 98 -26 0 -78 -23 -105 -46 -13 -12 -17 -11 -28 9 -6 12 -27 33 -46 46 -30 20 -42 22 -89 17 -30 -4 -66 -16 -79 -26 l-24 -19 -38 39 c-45 46 -81 52 -130 21 -23 -14 -35 -16 -53 -8 -19 9 -34 2 -105 -45 -45 -30 -111 -65 -147 -78 -72 -26 -95 -42 -116 -82 -20 -39 -17 -77 10 -155 14 -37 34 -102 47 -143 35 -120 81 -209 155 -300 127 -155 134 -169 146 -319 12 -139 20 -156 62 -127 12 9 40 29 64 46 23 16 47 30 52 30 5 0 21 -18 37 -40 15 -22 31 -40 35 -40 3 0 25 22 48 50 23 27 45 50 48 49 4 0 30 -29 57 -65 l50 -65 25 29 c14 15 34 41 45 57 l21 28 53 -66 c47 -59 54 -65 72 -54 10 6 19 15 19 18 0 4 20 35 43 70 56 82 71 125 103 289 21 105 27 170 29 290 2 170 4 181 45 320 16 52 43 154 60 225 17 72 40 159 52 194 19 57 20 70 10 120 -20 95 -77 126 -139 73z m102 -32 c22 -42 19 -110 -10 -204 -13 -44 -34 -121 -45 -171 -12 -49 -37 -142 -57 -205 -34 -109 -36 -123 -38 -265 -1 -82 -5 -166 -8 -185 -3 -19 -16 -90 -27 -157 -26 -154 -39 -190 -102 -285 l-50 -78 -21 28 c-11 15 -36 44 -55 64 -41 43 -54 40 -92 -21 -14 -23 -28 -40 -31 -39 -4 2 -28 29 -53 61 -26 31 -51 57 -56 57 -4 0 -28 -22 -52 -49 l-44 -49 -33 39 c-17 22 -36 39 -41 39 -5 0 -38 -20 -74 -45 l-65 -46 -5 33 c-3 18 -8 69 -11 113 -8 103 -32 152 -134 280 -44 55 -94 127 -110 161 -38 80 -121 343 -121 385 0 59 29 93 100 114 35 11 100 43 144 72 45 29 86 53 93 53 7 0 22 -10 33 -22 18 -19 21 -32 18 -69 -7 -75 -36 -120 -93 -148 -64 -31 -164 -40 -188 -17 -9 9 -18 12 -22 7 -3 -6 6 -18 20 -27 20 -13 41 -16 99 -12 l74 5 5 -39 c12 -88 57 -120 176 -126 83 -4 87 -6 117 -38 33 -35 61 -42 96 -23 19 10 19 9 13 -20 -7 -32 5 -62 38 -98 17 -19 31 -23 77 -23 70 0 74 4 125 135 49 126 81 192 111 228 13 16 24 41 24 57 0 15 18 66 40 112 27 57 49 126 70 221 17 77 35 149 41 160 37 72 97 90 124 37z m-811 -309 c26 -27 27 -30 17 -89 -5 -34 -7 -102 -4 -151 4 -57 2 -106 -6 -133 l-12 -43 -74 5 c-40 3 -75 7 -78 10 -12 14 -27 78 -27 116 0 31 6 50 23 68 42 45 64 175 35 205 -19 18 16 41 62 41 27 0 43 -7 64 -29z m255 -38 c19 -23 31 -49 31 -66 0 -43 -30 -194 -51 -263 -22 -69 -40 -90 -96 -110 -38 -13 -38 -13 -69 21 -17 19 -36 35 -43 35 -9 0 -9 5 0 22 7 13 11 73 10 164 0 79 3 154 9 168 15 39 66 66 127 66 47 0 54 -3 82 -37z m190 7 c23 -12 57 -91 66 -150 6 -41 2 -51 -33 -105 -37 -58 -86 -165 -122 -269 -19 -56 -40 -72 -40 -31 0 32 -26 85 -43 86 -25 3 -43 -3 -63 -22 -11 -10 -23 -19 -27 -19 -10 0 19 67 42 96 24 30 43 95 66 219 30 164 27 158 70 182 45 25 58 27 84 13z m-647 -275 c4 -64 -8 -59 -21 8 -6 36 -5 47 4 47 9 0 14 -19 17 -55z m476 -272 c3 -17 -2 -23 -16 -23 -24 0 -46 25 -37 40 12 19 50 7 53 -17z"
       id="path1"
       style="stroke:#8d8d8d;stroke-opacity:1;fill:#000000;fill-opacity:1" />
    <path
       d="M2016 1831 c-9 -10 -24 -50 -32 -88 -17 -83 -17 -83 0 -83 9 0 16 18 20 53 7 53 37 117 56 117 5 0 14 -9 20 -20 8 -15 6 -24 -10 -40 -11 -11 -27 -20 -35 -20 -20 0 -19 -16 1 -24 13 -5 16 -17 12 -61 -3 -37 -1 -54 6 -52 6 2 13 30 16 63 3 35 13 71 24 88 18 26 18 31 5 55 -18 33 -59 39 -83 12z"
       id="path2"
       style="stroke:#8d8d8d;stroke-opacity:1;fill:#000000;fill-opacity:1" />
    <path
       d="M1949 1614 c-9 -11 -7 -14 10 -14 25 0 24 2 10 -56 -7 -25 -17 -44 -25 -44 -8 0 -14 -4 -14 -10 0 -5 11 -10 24 -10 13 0 31 -3 40 -6 11 -4 16 -1 16 10 0 9 -6 16 -14 16 -11 0 -11 9 -3 45 6 27 15 44 23 43 28 -6 11 18 -21 29 -28 9 -36 9 -46 -3z"
       id="path3"
       style="stroke:#8d8d8d;stroke-opacity:1;fill:#000000;fill-opacity:1" />
    <path
       d="M1080 1462 l-35 -67 -6 47 c-13 87 -28 89 -64 11 -14 -32 -33 -65 -42 -75 -9 -10 -13 -21 -9 -26 11 -10 64 56 71 90 9 41 25 24 25 -28 0 -33 4 -44 15 -44 18 0 95 115 95 142 0 33 -15 19 -50 -50z"
       id="path4"
       style="stroke:#8d8d8d;stroke-opacity:1;fill:#000000;fill-opacity:1" />
    <path
       d="M1917 1427 c-54 -43 -44 -147 15 -147 24 0 23 21 -2 27 -15 4 -20 14 -20 43 0 37 17 60 53 73 9 4 17 11 17 17 0 17 -34 11 -63 -13z"
       id="path5"
       style="stroke:#8d8d8d;stroke-opacity:1;fill:#000000;fill-opacity:1" />
    <path
       d="M1847 1241 c-44 -53 -70 -187 -41 -216 37 -36 106 -1 124 63 35 127 -19 228 -83 153z m63 -72 c0 -91 -18 -129 -62 -129 l-31 0 6 60 c9 86 50 160 80 143 4 -2 7 -36 7 -74z"
       id="path6"
       style="stroke:#8d8d8d;stroke-opacity:1;fill:#000000;fill-opacity:1" />
    <path
       d="M1205 1531 c-3 -5 -1 -12 5 -16 5 -3 10 -42 10 -86 0 -64 -3 -79 -15 -79 -17 0 -20 -17 -4 -22 19 -6 79 4 79 13 0 5 -9 9 -20 9 -18 0 -20 7 -20 79 0 72 2 79 21 84 12 3 18 10 14 16 -8 13 -62 15 -70 2z"
       id="path7"
       style="stroke:#8d8d8d;stroke-opacity:1;fill:#000000;fill-opacity:1" />
    <path
       d="M1414 1514 c-3 -10 -17 -46 -30 -79 -27 -65 -34 -112 -19 -117 5 -2 12 12 16 30 4 18 9 36 13 39 5 5 29 -19 75 -77 10 -14 22 -22 26 -18 9 8 -26 67 -54 92 -20 18 -19 19 26 50 47 31 65 56 43 56 -7 0 -28 -13 -47 -30 -29 -26 -53 -38 -53 -26 0 2 7 20 16 41 10 26 12 41 5 48 -7 7 -12 4 -17 -9z"
       id="path8"
       style="stroke:#8d8d8d;stroke-opacity:1;fill:#000000;fill-opacity:1" />
    <path
       d="M1685 1448 c-56 -32 -116 -177 -99 -243 18 -70 87 -36 124 62 15 41 20 74 18 121 -3 69 -10 79 -43 60z m25 -62 c0 -83 -58 -210 -88 -192 -31 19 6 164 55 218 25 28 33 22 33 -26z"
       id="path9"
       style="stroke:#8d8d8d;stroke-opacity:1;fill:#000000;fill-opacity:1" />
  </g>
  <path
     style="fill:#000000;fill-opacity:1;stroke:#000000;stroke-width:1;stroke-opacity:1;stroke-dasharray:none"
     d="m 150.98891,125.73775 3.51083,3.876 4.1345,0.10602 -0.0415,-5.27703 -4.9471,-2.43453 -4.56817,1.50056 z"
     id="path10" />
</svg>
